<?xml version="1.0" standalone="no"?>
<!DOCTYPE svg PUBLIC "-//W3C//DTD SVG 20010904//EN"
 "http://www.w3.org/TR/2001/REC-SVG-20010904/DTD/svg10.dtd">
<svg version="1.0" xmlns="http://www.w3.org/2000/svg"
 width="1024.000000pt" height="1024.000000pt" viewBox="0 0 1024.000000 1024.000000"
 preserveAspectRatio="xMidYMid meet">

<g transform="translate(0.000000,1024.000000) scale(0.100000,-0.100000)"
fill="#000000" stroke="none">
<path d="M4510 9228 c-95 -12 -275 -71 -410 -136 -198 -95 -405 -239 -567
-395 l-91 -88 -27 83 c-16 46 -39 107 -51 137 l-24 54 -78 -7 c-42 -3 -193 -7
-334 -8 -258 -1 -258 -1 -258 -23 0 -12 -13 -46 -29 -76 -34 -62 -253 -545
-315 -694 -30 -72 -74 -147 -156 -265 -269 -388 -296 -432 -445 -704 -173
-318 -266 -541 -300 -721 -10 -49 -16 -136 -16 -221 0 -205 19 -339 107 -756
6 -27 0 -45 -146 -418 -271 -695 -411 -1270 -461 -1895 -15 -185 -6 -614 16
-770 46 -334 100 -509 200 -644 92 -126 282 -255 414 -282 l58 -12 59 -121
c134 -275 301 -486 473 -600 144 -95 359 -186 440 -186 28 0 48 7 68 24 25 22
26 26 14 52 -19 42 -131 352 -131 363 0 6 24 2 54 -9 185 -63 433 -49 704 41
50 17 92 34 92 38 0 4 -42 33 -92 65 -291 180 -680 484 -762 595 -39 54 -106
224 -93 237 3 3 32 -8 64 -25 138 -69 426 -153 602 -174 l106 -13 305 -185
c427 -259 655 -388 877 -496 203 -99 240 -112 270 -95 15 9 24 5 51 -21 l33
-32 217 2 c144 1 240 6 287 16 39 8 85 12 102 10 23 -4 45 2 75 20 25 14 74
30 117 36 41 7 94 20 116 30 23 10 161 108 306 218 373 282 560 403 914 594
128 68 187 119 242 206 31 49 31 51 11 56 -12 3 -34 3 -49 0 -37 -7 -79 4 -79
20 0 8 12 24 26 38 51 47 49 75 -8 135 l-29 31 81 57 c309 217 531 622 669
1224 63 275 66 303 65 617 -1 167 -6 311 -12 340 -10 44 -9 51 6 60 9 6 37 29
61 53 24 23 45 41 47 40 1 -2 11 -26 21 -53 10 -28 23 -48 28 -45 6 3 10 46
11 97 1 59 9 119 22 170 12 43 25 107 30 143 6 47 10 -57 16 -365 14 -683 -8
-1007 -94 -1438 -59 -292 -159 -626 -230 -766 -45 -91 -140 -166 -365 -291
-72 -40 -147 -89 -169 -110 l-39 -38 29 -18 c24 -16 48 -19 174 -18 153 0 297
24 489 79 47 14 86 23 88 21 7 -7 -66 -228 -104 -312 -87 -197 -162 -295 -293
-384 -76 -52 -246 -128 -360 -161 -44 -12 -80 -28 -80 -35 0 -16 49 -38 155
-69 323 -93 615 -83 852 31 122 58 201 133 290 271 57 89 68 101 75 84 13 -36
27 -140 43 -316 18 -195 22 -215 41 -215 18 0 87 118 189 325 98 199 165 351
165 376 0 9 36 47 80 84 277 231 476 562 547 912 25 121 25 545 0 752 -71 602
-278 1557 -467 2162 -47 152 -48 158 -43 250 6 106 -12 693 -27 872 -5 66 -16
131 -24 145 -8 15 -33 65 -55 112 -72 152 -285 419 -472 592 -65 61 -121 124
-161 183 -75 111 -202 275 -285 367 -43 48 -65 81 -69 106 -9 45 -175 475
-204 529 -46 84 -55 98 -65 102 -5 2 -28 23 -51 47 l-40 43 -170 -20 c-116
-14 -215 -19 -314 -17 l-145 3 -18 -60 c-32 -103 -28 -101 -67 -48 -115 155
-386 274 -722 318 -39 5 -47 10 -52 32 -12 45 -37 72 -94 100 -51 25 -69 28
-183 31 -87 3 -152 -1 -215 -13 -111 -20 -301 -83 -418 -138 l-89 -42 -66 66
c-36 36 -90 78 -119 93 -100 51 -232 70 -362 54z m292 -203 c85 -15 152 -37
163 -54 7 -12 1 -16 -205 -148 -190 -121 -221 -145 -390 -296 -267 -239 -409
-415 -754 -932 -280 -420 -407 -712 -517 -1193 -94 -410 -133 -836 -107 -1182
l7 -95 -20 55 c-11 30 -35 91 -54 135 -46 109 -67 179 -115 390 -191 834 -187
1113 23 1690 88 239 322 690 394 756 15 15 43 34 62 44 26 13 31 19 20 26 -11
7 -4 18 33 52 26 23 102 92 168 154 107 99 273 244 394 341 57 47 132 89 262
150 233 108 436 142 636 107z m943 5 c55 -6 124 -17 153 -25 124 -36 231 -195
332 -490 86 -253 117 -489 107 -800 -10 -287 -35 -421 -107 -570 -127 -261
-354 -481 -770 -745 -193 -123 -504 -336 -573 -392 l-47 -39 19 48 c10 26 31
75 46 108 108 241 196 594 235 953 20 179 30 524 20 703 -20 401 -108 823
-200 967 -22 34 -40 66 -40 71 0 12 268 147 336 169 61 20 191 40 294 45 30 2
64 4 75 5 11 1 65 -3 120 -8z m688 -231 c188 -82 342 -200 568 -434 114 -118
189 -208 324 -390 272 -366 357 -498 471 -730 148 -302 204 -495 204 -700 0
-109 -26 -251 -40 -224 -5 8 -22 64 -40 124 -91 319 -325 772 -560 1087 -113
151 -209 262 -218 253 -3 -3 8 -20 25 -38 152 -161 357 -526 447 -797 84 -254
161 -598 185 -830 39 -363 68 -1152 44 -1194 -7 -13 -21 27 -57 156 -26 95
-67 223 -92 285 l-44 112 15 98 c22 147 19 863 -4 863 -3 0 -7 -102 -9 -228
-4 -272 -21 -452 -62 -653 -33 -162 -58 -250 -97 -344 -42 -103 -141 -292
-200 -383 -51 -80 -232 -314 -252 -326 -5 -3 9 42 30 100 74 201 102 341 119
603 15 229 -6 632 -50 940 -42 298 -155 762 -262 1076 -117 344 -359 884 -470
1050 -51 76 -55 87 -82 219 -28 143 -60 245 -102 328 -13 26 -24 49 -24 52 0
8 162 -45 233 -75z m-1499 -141 c35 -80 92 -263 110 -353 37 -195 61 -568 52
-825 -19 -561 -149 -1199 -317 -1549 -75 -157 -77 -158 196 34 292 205 491
343 513 354 18 9 31 10 59 0 l35 -11 -73 -74 c-40 -40 -70 -77 -65 -81 4 -4
13 -3 20 2 8 6 34 25 59 43 l46 32 -10 -30 c-5 -16 -13 -45 -19 -62 -11 -36
-13 -91 -4 -100 3 -3 27 1 53 10 39 12 47 19 44 33 -6 20 -18 25 -27 10 -4 -5
0 -11 6 -14 7 -3 3 -4 -8 -4 -15 1 -20 6 -16 17 4 11 0 10 -16 -4 -44 -38 -31
-8 14 34 87 80 240 128 469 149 333 29 706 -133 936 -405 50 -60 75 -83 77
-72 2 9 -4 30 -12 46 -15 28 -14 30 4 25 10 -3 26 -21 36 -41 22 -47 32 -456
15 -647 -33 -380 -135 -744 -261 -930 -44 -65 -45 -68 -24 -57 37 21 202 179
288 277 49 55 95 107 103 115 14 13 15 -3 9 -148 -11 -267 -38 -403 -97 -488
-43 -63 -212 -237 -313 -321 -190 -160 -430 -296 -649 -368 l-131 -43 -36 28
c-101 79 -325 200 -372 200 -11 0 -34 -25 -58 -64 -33 -52 -54 -72 -113 -108
-137 -83 -159 -105 -202 -208 -71 -172 -199 -334 -323 -406 -24 -14 -45 -24
-47 -22 -1 1 -19 50 -39 108 -47 141 -62 231 -47 299 6 29 11 56 11 61 0 8
-122 114 -231 202 -38 30 -53 52 -79 118 -18 44 -37 83 -42 86 -21 13 -256
-123 -434 -251 -18 -13 -113 19 -252 85 -369 175 -699 525 -733 777 -24 184
-60 776 -46 763 3 -3 28 -39 55 -80 47 -72 179 -222 150 -170 -63 110 -121
317 -139 500 -13 129 -6 362 16 514 12 85 18 104 55 161 43 65 77 93 40 33
-44 -73 -14 -56 88 49 196 201 413 316 690 363 185 32 327 24 455 -26 72 -28
154 -80 168 -105 13 -26 29 -24 29 4 0 26 -34 103 -58 132 -9 11 13 -8 49 -42
35 -35 68 -63 72 -63 22 0 -2 35 -74 108 -45 45 -79 82 -76 82 4 0 24 -7 46
-16 40 -16 72 -16 72 0 0 4 -37 24 -83 43 -46 19 -120 51 -165 70 -116 48
-209 66 -320 61 l-93 -4 0 73 0 73 58 26 c80 36 195 64 261 64 70 0 161 -23
221 -55 45 -25 45 -25 17 -2 -54 45 -122 62 -242 61 -96 -1 -122 -5 -205 -33
-52 -18 -101 -35 -108 -38 -11 -4 -12 10 -7 68 15 178 27 274 35 290 12 21
107 56 190 69 152 23 309 6 410 -45 62 -31 80 -32 80 -2 0 26 -48 76 -95 100
-92 46 -253 71 -368 57 -122 -15 -139 -18 -170 -29 l-29 -11 7 42 c15 90 89
369 136 510 100 304 200 527 342 763 99 166 92 159 242 199 72 19 138 34 148
35 13 1 25 -15 41 -51z m-1595 -140 c5 -18 11 -44 15 -58 l7 -25 -20 24 c-14
15 -21 37 -21 64 0 46 8 44 19 -5z m1057 -119 c-163 -282 -356 -811 -420
-1151 -36 -190 -54 -342 -62 -518 l-7 -153 -40 78 c-119 237 -154 411 -158
790 l-3 170 103 150 c179 261 317 431 484 598 87 88 161 157 163 154 3 -3 -24
-56 -60 -118z m2117 -444 c153 -337 292 -707 363 -970 72 -265 204 -864 204
-927 0 -5 -33 20 -73 55 -263 229 -678 398 -977 397 -88 -1 -138 -13 -250 -64
-101 -47 -170 -69 -170 -56 0 4 48 44 108 88 59 44 146 114 193 156 l86 75
104 6 c94 6 113 4 194 -20 50 -14 121 -41 160 -60 38 -18 71 -32 73 -31 5 6
-119 68 -175 87 -67 23 -220 57 -276 61 l-39 3 75 92 c42 51 90 115 108 143
18 27 40 52 50 55 40 13 226 -110 248 -164 21 -50 61 -34 61 24 0 62 -96 162
-207 217 -58 28 -61 32 -52 55 24 63 59 228 68 322 18 167 12 396 -14 676 l-6
60 42 -75 c24 -41 69 -133 102 -205z m-2853 -876 l13 -97 -31 -56 c-31 -54
-41 -96 -23 -96 5 0 21 20 35 45 15 25 30 45 34 45 5 0 16 -31 25 -70 24 -99
70 -213 121 -300 50 -85 53 -77 -55 -116 -199 -71 -457 -228 -607 -369 -74
-70 -81 -74 -77 -48 3 15 12 73 20 128 74 481 249 970 461 1290 l59 88 6 -174
c3 -96 12 -217 19 -270z m760 72 c26 -7 3 -9 -95 -11 -71 0 -151 -5 -177 -9
-59 -10 -56 10 5 26 46 12 210 8 267 -6z m1968 -85 c49 -26 124 -85 107 -85
-5 0 -48 24 -95 54 -88 57 -94 73 -12 31z m-3815 -1488 c34 -49 35 -53 22 -84
-15 -37 -42 -162 -77 -364 l-23 -135 -6 80 c-4 44 -10 187 -14 318 l-8 237 35
0 c30 0 39 -6 71 -52z m5427 -115 c0 -54 -3 -73 -10 -63 -13 20 -13 140 0 140
6 0 10 -32 10 -77z m931 -299 c197 -705 379 -1831 379 -2344 0 -405 -107 -677
-351 -888 -226 -197 -453 -309 -751 -373 -128 -27 -308 -49 -308 -37 0 3 53
37 118 76 230 138 405 275 569 445 137 143 190 250 247 510 10 44 -10 31 -23
-15 -24 -81 -89 -206 -130 -251 -42 -46 -81 -65 -186 -91 -108 -27 -376 -46
-419 -30 -11 4 6 26 63 82 42 42 97 106 121 142 24 36 79 103 122 149 88 93
99 123 16 41 -29 -29 -79 -70 -111 -92 -59 -40 -274 -150 -407 -208 -41 -18
-120 -57 -175 -86 -115 -61 -233 -113 -196 -86 114 81 189 142 208 170 38 58
120 285 177 495 l35 128 111 116 c301 315 482 612 613 1004 58 174 123 479
108 504 -3 6 -9 -3 -13 -20 -4 -16 -4 -5 -1 25 3 30 7 84 8 120 2 36 10 85 20
110 22 62 79 293 101 417 10 56 20 100 22 99 2 -2 17 -53 33 -112z m-7225
-434 c41 -223 84 -454 95 -515 31 -171 105 -462 150 -592 81 -230 161 -380
392 -731 l140 -214 33 -144 c59 -258 97 -325 290 -521 85 -87 134 -143 123
-143 -31 0 -213 40 -274 60 -84 28 -155 78 -258 182 -91 93 -146 166 -190 255
-15 28 -31 54 -36 57 -13 9 0 -36 55 -184 58 -157 186 -541 182 -545 -5 -5
-193 158 -290 250 -100 96 -119 130 -176 305 -101 312 -174 648 -217 1000 -23
186 -36 207 -30 45 21 -486 149 -1115 264 -1292 21 -32 75 -93 120 -135 76
-72 152 -135 515 -425 115 -93 345 -254 516 -362 l35 -23 -120 7 c-250 13
-415 49 -755 164 -519 175 -880 402 -1019 639 -101 173 -134 349 -134 707 1
581 74 1082 253 1730 101 364 199 737 226 860 l18 80 8 -55 c5 -30 42 -237 84
-460z m756 -148 l68 -68 -10 -134 c-12 -172 2 -420 35 -607 40 -230 147 -567
278 -878 111 -263 334 -565 417 -565 15 0 12 43 -5 87 -45 117 -134 573 -111
573 3 0 55 -25 116 -56 62 -30 115 -53 118 -50 3 3 -11 55 -30 115 -29 91 -33
111 -21 115 8 3 71 6 139 6 l124 0 -6 81 -7 81 64 -42 c35 -23 102 -60 149
-82 l85 -40 -35 -12 c-33 -11 -35 -14 -35 -56 l1 -45 -86 0 c-73 0 -93 -4
-141 -28 -68 -33 -128 -95 -167 -174 -43 -84 -87 -232 -108 -358 l-18 -110
-108 -109 -108 -109 0 -99 c0 -77 -3 -98 -14 -98 -32 0 -241 175 -321 269 -25
30 -55 71 -66 92 -65 128 -167 852 -234 1649 -11 141 -45 664 -45 713 0 17 19
3 82 -61z m5165 -529 c-7 -157 -41 -401 -78 -547 -17 -66 -31 -99 -59 -135
-47 -59 -210 -208 -310 -283 -89 -67 -251 -170 -258 -164 -2 3 5 20 17 39 97
157 198 413 261 662 47 183 50 191 87 224 150 132 220 201 275 271 35 44 65
80 67 80 2 0 1 -66 -2 -147z m-4818 -91 c24 -35 74 -100 111 -143 63 -73 69
-84 75 -137 16 -140 60 -359 98 -484 13 -41 13 -47 0 -52 -20 -8 -43 23 -97
129 -42 83 -47 101 -60 219 -9 71 -18 131 -20 134 -7 6 -11 -17 -31 -178 -10
-74 -21 -144 -26 -155 -6 -18 -9 -16 -23 16 -53 124 -131 529 -141 734 l-6
120 38 -70 c21 -38 58 -99 82 -133z m4237 -394 c-62 -243 -151 -427 -312 -645
l-54 -72 -45 48 c-47 51 -112 88 -168 97 -69 11 -77 15 -93 45 -10 19 -32 38
-60 50 -24 11 -44 21 -44 23 0 2 28 13 63 26 88 32 264 123 365 190 106 69
258 196 315 261 23 26 43 46 45 44 2 -2 -4 -32 -12 -67z m-3709 -127 c46 -47
73 -83 73 -96 0 -21 -6 -23 -86 -29 -47 -4 -88 -5 -91 -3 -7 8 -53 239 -53
271 0 29 0 28 42 -20 23 -27 75 -82 115 -123z m1142 -166 c59 -162 108 -276
184 -430 65 -130 76 -181 77 -333 0 -106 -16 -99 -25 10 -14 173 -20 193 -114
378 -49 96 -112 234 -141 305 -28 72 -57 136 -64 143 -8 9 -23 11 -41 6 -24
-6 -174 -103 -362 -234 -35 -24 -65 -41 -69 -38 -15 15 319 257 421 305 79 37
81 35 134 -112z m1342 -12 c85 -58 205 -140 267 -181 98 -66 122 -88 102 -95
-3 -1 -46 21 -95 48 -90 50 -196 124 -315 220 -87 70 -109 81 -125 63 -7 -7
-34 -71 -58 -143 -25 -71 -65 -173 -90 -225 -94 -202 -129 -323 -147 -505 -7
-77 -8 -65 -5 80 l3 170 57 135 c31 74 88 223 127 330 38 107 75 198 81 202
26 16 50 4 198 -99z m-1435 0 c40 -110 71 -178 164 -359 93 -183 125 -274 94
-274 -16 0 -129 47 -219 92 -81 40 -407 240 -459 281 l-28 22 87 60 c202 140
329 225 336 225 4 0 15 -21 25 -47z m1369 -54 c76 -66 236 -177 328 -229 31
-17 57 -34 57 -36 0 -2 -42 -31 -92 -65 -51 -34 -118 -80 -148 -103 -30 -23
-82 -59 -114 -81 -33 -22 -132 -110 -220 -195 -122 -117 -162 -150 -164 -136
-13 66 57 357 123 511 26 61 70 174 97 253 28 78 53 142 57 142 3 -1 38 -28
76 -61z m-2777 -36 c30 -51 30 -52 10 -58 -28 -10 -36 2 -44 65 -7 63 -7 63
34 -7z m77 -230 c4 -32 16 -107 26 -168 23 -132 23 -138 2 -101 -14 27 -123
293 -123 302 0 4 58 22 77 23 7 1 14 -22 18 -56z m791 -24 c116 -55 273 -223
374 -399 56 -99 172 -341 165 -348 -2 -2 -41 17 -87 41 -46 25 -135 66 -198
91 -246 96 -421 129 -576 108 -48 -6 -89 -11 -90 -9 -8 9 53 212 86 288 23 52
53 125 67 162 27 69 42 84 98 98 44 10 93 1 161 -32z m2661 10 c35 -13 80 -55
100 -92 8 -16 13 -30 11 -32 -2 -1 -22 -14 -45 -29 -24 -14 -43 -33 -43 -41 0
-21 31 -95 40 -95 4 0 24 14 45 30 21 17 40 29 42 27 2 -2 -2 -18 -8 -35 -8
-25 -6 -45 15 -111 14 -45 29 -100 32 -123 6 -37 5 -41 -10 -35 -10 4 -30 10
-44 13 -15 3 -48 12 -74 20 l-46 15 10 37 c23 84 -15 209 -72 232 -28 11 -34
11 -58 -7 -45 -33 -84 -120 -80 -176 2 -26 0 -47 -3 -47 -4 0 -53 -5 -110 -11
-112 -11 -185 -27 -293 -65 -38 -13 -71 -22 -73 -21 -6 6 37 137 63 192 41 87
247 271 369 331 58 28 81 34 137 34 37 0 79 -5 95 -11z m623 -79 c0 -39 -129
-390 -180 -490 l-21 -41 -32 25 c-30 23 -35 34 -52 123 -10 54 -30 135 -45
179 l-28 81 87 21 c47 12 124 41 171 65 96 49 100 51 100 37z m-685 -231 c4
-10 3 -29 0 -40 -5 -15 -4 -19 4 -15 14 9 14 -16 -1 -66 -10 -35 -14 -39 -37
-33 -37 9 -40 14 -47 75 -5 50 -4 58 19 82 28 30 52 29 62 -3z m-714 -209
c-31 -109 -42 -124 -171 -242 -130 -118 -146 -144 -114 -179 13 -15 14 -22 5
-33 -9 -11 -6 -24 19 -62 16 -26 30 -58 30 -70 0 -36 -75 -172 -161 -293 -44
-62 -85 -109 -89 -105 -8 8 -92 469 -106 579 -5 42 0 68 34 165 22 63 54 144
70 180 17 36 33 76 35 90 3 14 5 6 6 -20 1 -40 6 -70 26 -157 3 -13 11 -23 17
-23 6 0 77 42 157 94 126 81 250 150 257 143 2 -1 -6 -31 -15 -67z m-1263 20
c73 -18 253 -90 275 -109 4 -4 16 -59 27 -122 10 -63 29 -140 41 -171 l21 -57
-26 -138 c-14 -76 -35 -194 -46 -262 -12 -69 -22 -127 -25 -129 -2 -2 -33 34
-70 80 -75 94 -74 85 -24 222 l33 89 -22 37 c-18 32 -20 42 -9 69 10 29 9 33
-23 67 -19 19 -56 51 -82 71 -27 19 -48 41 -48 49 0 16 -71 198 -99 253 -28
55 -35 82 -19 77 7 -3 50 -14 96 -26z m607 -24 c92 -22 97 -37 49 -166 -38
-104 -55 -124 -135 -164 -107 -54 -113 -52 -144 46 -42 132 -67 236 -63 265 2
19 11 30 28 35 35 10 192 1 265 -16z m1412 -17 c115 -30 204 -70 214 -96 7
-21 6 -20 -72 8 -115 42 -208 64 -220 52 -7 -7 12 -19 58 -37 138 -55 374
-188 359 -203 -2 -3 -64 14 -138 37 -436 139 -612 166 -750 119 -35 -12 -103
-42 -152 -66 -53 -27 -92 -41 -98 -35 -5 5 21 37 65 78 58 56 87 75 143 96
212 78 411 94 591 47z m-2642 -57 c183 -49 435 -168 572 -271 131 -100 142
-132 27 -80 -197 89 -445 192 -519 214 -211 65 -422 83 -563 50 -40 -9 -76
-14 -79 -12 -6 7 93 72 134 89 108 43 285 47 428 10z m4305 -16 c0 -19 -65
-75 -106 -92 -43 -18 -115 -29 -94 -15 14 10 7 16 -15 11 -23 -4 8 14 102 61
108 54 113 55 113 35z m-3061 -393 c8 -38 60 -381 86 -564 4 -33 0 -41 -36
-77 -52 -53 -112 -87 -187 -108 l-61 -17 -55 27 c-51 25 -56 31 -56 59 0 29
92 619 105 675 5 19 12 22 53 23 26 0 65 6 87 14 22 7 43 13 47 14 3 1 11 -20
17 -46z m3270 -9 c7 -6 -16 -26 -131 -115 -113 -87 -412 -268 -424 -256 -2 2
13 42 35 88 32 68 79 196 107 288 4 12 37 13 206 7 111 -3 204 -9 207 -12z
m-339 -548 c0 -2 -31 -27 -69 -55 -136 -101 -260 -141 -461 -147 l-135 -5 100
53 c55 30 111 61 125 70 14 9 48 20 75 23 60 8 63 10 47 35 -9 15 -8 19 6 23
21 6 312 8 312 3z m-5891 -255 c75 -32 166 -69 204 -82 l67 -24 31 -80 c17
-44 49 -123 71 -175 23 -52 47 -110 55 -129 l14 -33 -68 37 c-162 90 -317 212
-430 337 -54 60 -183 238 -183 252 0 4 23 -5 52 -20 28 -14 112 -52 187 -83z"/>
<path d="M5886 7673 c-78 -462 -254 -886 -509 -1227 l-98 -131 90 92 c209 218
384 570 476 958 23 97 75 376 75 402 0 7 -4 13 -8 13 -4 0 -16 -48 -26 -107z"/>
<path d="M4570 6069 c0 -5 -4 -7 -10 -4 -5 3 -10 2 -10 -3 0 -12 26 -23 34
-15 10 10 7 33 -4 33 -5 0 -10 -5 -10 -11z"/>
<path d="M3378 5919 c-49 -26 -214 -168 -197 -169 3 0 19 12 35 27 26 24 144
113 204 155 38 26 22 21 -42 -13z"/>
<path d="M4000 5934 c-139 -37 -248 -119 -310 -236 -45 -84 -53 -184 -20 -252
30 -63 87 -109 168 -135 137 -45 275 -35 410 31 125 61 253 218 268 330 11 81
-53 181 -146 228 -96 49 -257 64 -370 34z m337 -294 c55 -24 93 -57 93 -80 0
-9 -19 -34 -42 -57 -115 -110 -298 -172 -450 -151 -73 10 -145 49 -154 82 -18
74 136 201 274 226 80 15 224 5 279 -20z"/>
<path d="M5892 5934 c-71 -19 -99 -34 -161 -90 -101 -91 -137 -224 -91 -332
39 -90 143 -171 280 -218 74 -25 252 -26 330 -2 80 25 160 77 195 126 28 42
30 49 30 140 0 87 -3 103 -29 155 -88 174 -346 277 -554 221z m249 -300 c143
-42 252 -143 220 -203 -31 -57 -193 -108 -312 -97 -128 11 -291 86 -335 154
-15 23 -14 26 18 59 39 41 113 81 172 93 70 13 180 11 237 -6z"/>
<path d="M4980 5235 c0 -14 25 -27 34 -18 11 11 6 21 -14 26 -12 3 -20 0 -20
-8z"/>
<path d="M5811 4776 c-59 -63 -273 -146 -438 -171 -114 -17 -405 -20 -568 -5
-197 18 -451 77 -549 127 -53 27 -24 -9 42 -53 34 -23 99 -77 144 -120 183
-176 348 -264 573 -309 308 -61 575 64 714 335 27 52 59 105 71 115 32 29 52
73 42 90 -7 13 -12 12 -31 -9z m-166 -164 l-20 -5 20 -7 c11 -4 30 -3 43 3 31
14 36 4 16 -35 -46 -90 -141 -185 -247 -246 -127 -73 -329 -88 -512 -38 -97
26 -245 90 -245 106 0 17 104 73 178 97 77 26 144 31 288 23 33 -2 69 2 80 8
14 8 15 12 4 12 -8 1 46 12 120 25 74 14 164 33 200 44 36 10 72 19 80 19 8 0
6 -3 -5 -6z"/>
<path d="M5218 4493 c7 -3 16 -2 19 1 4 3 -2 6 -13 5 -11 0 -14 -3 -6 -6z"/>
</g>
</svg>
